{"accessors": [{"bufferView": 2, "componentType": 5126, "count": 58053, "max": [0.5702559947967529, 0.9575600028038025, 0.7284359931945801], "min": [-0.5586619973182678, -0.9580950140953064, -0.7437469959259033], "type": "VEC3"}, {"bufferView": 2, "byteOffset": 696636, "componentType": 5126, "count": 58053, "max": [0.9999932050704956, 0.9999918937683105, 0.9999836683273315], "min": [-0.9998840093612671, -1.0, -0.9999545812606812], "type": "VEC3"}, {"bufferView": 1, "componentType": 5126, "count": 58053, "max": [0.9993410110473633, 0.9999340176582336], "min": [7.300000288523734e-05, 0.00011801719665527344], "type": "VEC2"}, {"bufferView": 1, "byteOffset": 464424, "componentType": 5126, "count": 58053, "max": [0.9993410110473633, 0.9999340176582336], "min": [7.300000288523734e-05, 0.00011801719665527344], "type": "VEC2"}, {"bufferView": 1, "byteOffset": 928848, "componentType": 5126, "count": 58053, "max": [0.9993410110473633, 0.9999340176582336], "min": [7.300000288523734e-05, 0.00011801719665527344], "type": "VEC2"}, {"bufferView": 1, "byteOffset": 1393272, "componentType": 5126, "count": 58053, "max": [0.9993410110473633, 0.9999340176582336], "min": [7.300000288523734e-05, 0.00011801719665527344], "type": "VEC2"}, {"bufferView": 0, "componentType": 5125, "count": 295494, "type": "SCALAR"}], "asset": {"extras": {"author": "ItsKrish7 (https://sketchfab.com/ItsKrish7)", "license": "CC-BY-4.0 (http://creativecommons.org/licenses/by/4.0/)", "source": "https://sketchfab.com/3d-models/bengal-cat-6d82596b5db94f7b9093814a4a88caa9", "title": "Bengal Cat"}, "generator": "Sketchfab-16.95.0", "version": "2.0"}, "bufferViews": [{"buffer": 0, "byteLength": 1181976, "name": "floatBufferViews", "target": 34963}, {"buffer": 0, "byteLength": 1857696, "byteOffset": 1181976, "byteStride": 8, "name": "floatBufferViews", "target": 34962}, {"buffer": 0, "byteLength": 1393272, "byteOffset": 3039672, "byteStride": 12, "name": "floatBufferViews", "target": 34962}], "buffers": [{"byteLength": 4432944, "uri": "2.bin"}], "extensionsUsed": ["KHR_materials_unlit"], "images": [{"uri": "2.jpg"}], "materials": [{"doubleSided": true, "extensions": {"KHR_materials_unlit": {}}, "name": "material_0", "pbrMetallicRoughness": {"baseColorTexture": {"index": 0}, "metallicFactor": 0.0}}], "meshes": [{"name": "Object_0", "primitives": [{"attributes": {"NORMAL": 1, "POSITION": 0, "TEXCOORD_0": 2, "TEXCOORD_1": 3}, "indices": 6, "material": 0, "mode": 4}]}], "nodes": [{"children": [1], "matrix": [1.0, 0.0, 0.0, 0.0, 0.0, 2.220446049250313e-16, -1.0, 0.0, 0.0, 1.0, 2.220446049250313e-16, 0.0, 0.0, 0.0, 0.0, 1.0], "name": "Sketchfab_model"}, {"children": [2], "name": "root"}, {"children": [3], "matrix": [1.0, 0.0, 0.0, 0.0, 0.0, 2.220446049250313e-16, 1.0, 0.0, 0.0, -1.0, 2.220446049250313e-16, 0.0, 0.0, 0.0, 0.0, 1.0], "name": "GLTF_SceneRootNode"}, {"children": [4], "name": "_0"}, {"mesh": 0, "name": "Object_4"}], "samplers": [{"magFilter": 9729, "minFilter": 9987, "wrapS": 10497, "wrapT": 10497}], "scene": 0, "scenes": [{"name": "Sketchfab_Scene", "nodes": [0]}], "textures": [{"sampler": 0, "source": 0}]}