<?xml version="1.0" encoding="UTF-8" standalone="no"?>
<!DOCTYPE svg PUBLIC "-//W3C//DTD SVG 1.1//EN" "http://www.w3.org/Graphics/SVG/1.1/DTD/svg11.dtd">
<svg width="100%" height="100%" viewBox="0 0 800 800" version="1.1" xmlns="http://www.w3.org/2000/svg" xmlns:xlink="http://www.w3.org/1999/xlink" xml:space="preserve" xmlns:serif="http://www.serif.com/" style="fill-rule:evenodd;clip-rule:evenodd;">
    <g transform="matrix(1.215278,0,0,1.215278,-86.111111,-86.111111)">
        <circle cx="400" cy="400" r="270" style="fill:none;stroke:rgb(189,189,189);stroke-width:3px;"/>
        <g transform="matrix(0.965926,-0.258819,0.258819,0.965926,-89.897949,117.157288)">
            <ellipse cx="400" cy="400" rx="270" ry="80" style="fill:none;stroke:rgb(189,189,189);stroke-width:3px;"/>
        </g>
        <g transform="matrix(0.965926,0.258819,-0.258819,0.965926,117.157288,-89.897949)">
            <ellipse cx="400" cy="400" rx="80" ry="270" style="fill:none;stroke:rgb(189,189,189);stroke-width:3px;"/>
        </g>
        <g transform="matrix(1,0,0,1,604,534)">
            <g>
                <path d="M18,0L36,9L36,27L18,36L0,27L0,9L18,0Z" style="fill:rgb(150,100,200);fill-rule:nonzero;stroke:white;stroke-opacity:0.5;stroke-width:1px;"/>
                <path d="M18,0L36,9L18,18L0,9L18,0Z" style="fill:rgb(180,130,220);fill-rule:nonzero;stroke:white;stroke-opacity:0.5;stroke-width:1px;"/>
                <path d="M0,9L18,18L18,36L0,27L0,9Z" style="fill:rgb(120,80,180);fill-rule:nonzero;stroke:white;stroke-opacity:0.4;stroke-width:1px;"/>
                <path d="M36,9L18,18L18,36L36,27L36,9Z" style="fill:rgb(140,100,190);fill-rule:nonzero;stroke:white;stroke-opacity:0.4;stroke-width:1px;"/>
            </g>
        </g>
        <g transform="matrix(1,0,0,1,385,654)">
            <g>
                <path d="M15,0L30,8L30,24L15,32L0,24L0,8L15,0Z" style="fill:rgb(150,100,200);fill-rule:nonzero;stroke:white;stroke-opacity:0.5;stroke-width:1px;"/>
                <path d="M15,0L30,8L15,16L0,8L15,0Z" style="fill:rgb(180,130,220);fill-rule:nonzero;stroke:white;stroke-opacity:0.5;stroke-width:1px;"/>
                <path d="M0,8L15,16L15,32L0,24L0,8Z" style="fill:rgb(120,80,180);fill-rule:nonzero;stroke:white;stroke-opacity:0.4;stroke-width:1px;"/>
                <path d="M30,8L15,16L15,32L30,24L30,8Z" style="fill:rgb(140,100,190);fill-rule:nonzero;stroke:white;stroke-opacity:0.4;stroke-width:1px;"/>
            </g>
        </g>
        <g transform="matrix(1,0,0,1,190,570)">
            <g>
                <path d="M18,0L36,9L36,27L18,36L0,27L0,9L18,0Z" style="fill:rgb(180,160,220);fill-rule:nonzero;stroke:white;stroke-opacity:0.5;stroke-width:1px;"/>
                <path d="M18,0L36,9L18,18L0,9L18,0Z" style="fill:rgb(200,180,240);fill-rule:nonzero;stroke:white;stroke-opacity:0.5;stroke-width:1px;"/>
                <path d="M0,9L18,18L18,36L0,27L0,9Z" style="fill:rgb(140,120,200);fill-rule:nonzero;stroke:white;stroke-opacity:0.4;stroke-width:1px;"/>
                <path d="M36,9L18,18L18,36L36,27L36,9Z" style="fill:rgb(160,140,210);fill-rule:nonzero;stroke:white;stroke-opacity:0.4;stroke-width:1px;"/>
            </g>
        </g>
        <g transform="matrix(1,0,0,1,112,364)">
            <g>
                <path d="M18,0L36,9L36,27L18,36L0,27L0,9L18,0Z" style="fill:rgb(180,160,220);fill-rule:nonzero;stroke:white;stroke-opacity:0.5;stroke-width:1px;"/>
                <path d="M18,0L36,9L18,18L0,9L18,0Z" style="fill:rgb(200,180,240);fill-rule:nonzero;stroke:white;stroke-opacity:0.5;stroke-width:1px;"/>
                <path d="M0,9L18,18L18,36L0,27L0,9Z" style="fill:rgb(140,120,200);fill-rule:nonzero;stroke:white;stroke-opacity:0.4;stroke-width:1px;"/>
                <path d="M36,9L18,18L18,36L36,27L36,9Z" style="fill:rgb(160,140,210);fill-rule:nonzero;stroke:white;stroke-opacity:0.4;stroke-width:1px;"/>
            </g>
        </g>
        <g transform="matrix(1,0,0,1,381,114)">
            <g>
                <path d="M15,0L30,8L30,24L15,32L0,24L0,8L15,0Z" style="fill:rgb(180,160,220);fill-rule:nonzero;stroke:white;stroke-opacity:0.5;stroke-width:1px;"/>
                <path d="M15,0L30,8L15,16L0,8L15,0Z" style="fill:rgb(200,180,240);fill-rule:nonzero;stroke:white;stroke-opacity:0.5;stroke-width:1px;"/>
                <path d="M0,8L15,16L15,32L0,24L0,8Z" style="fill:rgb(140,120,200);fill-rule:nonzero;stroke:white;stroke-opacity:0.4;stroke-width:1px;"/>
                <path d="M30,8L15,16L15,32L30,24L30,8Z" style="fill:rgb(160,140,210);fill-rule:nonzero;stroke:white;stroke-opacity:0.4;stroke-width:1px;"/>
            </g>
        </g>
        <g transform="matrix(1,0,0,1,205,165)">
            <g opacity="0.9">
                <circle cx="20" cy="20" r="20" style="fill:none;stroke:rgb(150,100,200);stroke-width:2px;"/>
                <path d="M6,28C11.333,24 16,23.333 20,26C24,23.333 28.667,24 34,28" style="fill:none;fill-rule:nonzero;stroke:rgb(150,100,200);stroke-width:2px;stroke-linecap:round;"/>
                <circle cx="14" cy="18" r="5" style="fill:rgb(150,100,200);"/>
                <circle cx="26" cy="18" r="5" style="fill:rgb(150,100,200);"/>
            </g>
        </g>
        <g transform="matrix(1,0,0,1,545.82678,166.495457)">
            <g opacity="0.9">
                <circle cx="22" cy="22" r="22" style="fill:none;stroke:rgb(150,100,200);stroke-width:2px;"/>
                <path d="M22,8L22,14" style="fill:none;fill-rule:nonzero;stroke:rgb(150,100,200);stroke-width:2px;stroke-linecap:round;"/>
                <path d="M22,30L22,36" style="fill:none;fill-rule:nonzero;stroke:rgb(150,100,200);stroke-width:2px;stroke-linecap:round;"/>
                <path d="M8,22L14,22" style="fill:none;fill-rule:nonzero;stroke:rgb(150,100,200);stroke-width:2px;stroke-linecap:round;"/>
                <path d="M30,22L36,22" style="fill:none;fill-rule:nonzero;stroke:rgb(150,100,200);stroke-width:2px;stroke-linecap:round;"/>
                <path d="M22,13L25,22L22,19L19,22L22,13Z" style="fill:rgb(150,100,200);fill-rule:nonzero;"/>
                <path d="M22,31L25,22L22,25L19,22L22,31Z" style="fill:rgb(150,100,200);fill-rule:nonzero;"/>
            </g>
        </g>
        <g transform="matrix(1,0,0,1,652,358)">
            <g opacity="0.9">
                <path d="M18,0C8,0 0,8 0,18C0,30 18,46 18,46C18,46 36,30 36,18C36,8 28,0 18,0Z" style="fill:none;fill-rule:nonzero;stroke:rgb(150,100,200);stroke-width:2.5px;"/>
                <circle cx="18" cy="18" r="7" style="fill:rgb(150,100,200);"/>
            </g>
        </g>
        <g>
            <path d="M220,520L220,280L295,380L295,460L220,520Z" style="fill:url(#_Linear1);fill-rule:nonzero;"/>
            <path d="M580,520L580,280L505,380L505,460L580,520Z" style="fill:url(#_Linear2);fill-rule:nonzero;"/>
            <path d="M220,520L295,460L340,520L260,560L220,520Z" style="fill:white;fill-opacity:0.75;fill-rule:nonzero;"/>
            <path d="M220,520L260,560L220,580L220,520Z" style="fill:rgb(200,190,230);fill-opacity:0.5;fill-rule:nonzero;"/>
            <path d="M580,520L505,460L460,520L540,560L580,520Z" style="fill:white;fill-opacity:0.75;fill-rule:nonzero;"/>
            <path d="M580,520L540,560L580,580L580,520Z" style="fill:rgb(200,190,230);fill-opacity:0.5;fill-rule:nonzero;"/>
            <ellipse cx="400" cy="470" rx="22" ry="35" style="fill:rgb(80,60,140);fill-opacity:0.9;"/>
            <ellipse cx="400" cy="455" rx="22" ry="12" style="fill:rgb(120,100,180);fill-opacity:0.8;"/>
            <g transform="matrix(0,1.355556,-1.355556,0,732.111111,-204.222222)">
                <path d="M490,240L400,180L400,310L490,240Z" style="fill:rgb(230,220,250);fill-opacity:0.85;fill-rule:nonzero;"/>
            </g>
        </g>
    </g>
    <defs>
        <linearGradient id="_Linear1" x1="0" y1="0" x2="1" y2="0" gradientUnits="userSpaceOnUse" gradientTransform="matrix(75,240,-240,75,220,280)"><stop offset="0" style="stop-color:white;stop-opacity:0.95"/><stop offset="1" style="stop-color:rgb(200,192,232);stop-opacity:0.95"/></linearGradient>
        <linearGradient id="_Linear2" x1="0" y1="0" x2="1" y2="0" gradientUnits="userSpaceOnUse" gradientTransform="matrix(75,240,-240,75,505,280)"><stop offset="0" style="stop-color:white;stop-opacity:0.95"/><stop offset="1" style="stop-color:rgb(200,192,232);stop-opacity:0.95"/></linearGradient>
    </defs>
</svg>
